<?xml version="1.0" encoding="iso-8859-1"?>
<!-- Generator: Adobe Illustrator 19.0.1, SVG Export Plug-In . SVG Version: 6.00 Build 0)  -->
<svg version="1.1" xmlns="http://www.w3.org/2000/svg" xmlns:xlink="http://www.w3.org/1999/xlink" x="0px" y="0px"
	 viewBox="0 0 128 128" style="enable-background:new 0 0 128 128;" xml:space="preserve">
<g id="_x33_">
	<path fill="currentColor" d="M72.632,113.504c-2.831,0-5.278-1.82-6.09-4.534l-0.082-0.362L52.738,20.471
		c-0.169-0.392-0.499-0.501-0.756-0.521c-0.247-0.02-0.582,0.035-0.807,0.368L38.413,67.077H0v-5.45h34.251L46.169,18.13
		c1.139-2.397,3.578-3.828,6.227-3.613c2.645,0.201,4.847,1.973,5.608,4.513l0.083,0.364l13.722,88.14
		c0.181,0.427,0.541,0.521,0.823,0.521h0.002c0.31,0,0.711-0.114,0.869-0.651l18.278-72.322c0.734-2.9,3.286-4.754,6.227-4.8
		c2.993,0.029,5.457,2.007,6.131,4.921l11.254,48.534c0.108,0.466,0.406,0.703,0.883,0.703c0,0,0,0,0.002,0
		c0.328,0,0.749-0.122,0.883-0.702l5.53-23.64L128,61.34l-5.53,23.64c-0.688,2.938-3.176,4.91-6.191,4.91c-0.004,0-0.005,0-0.009,0
		c-3.018-0.004-5.505-1.982-6.184-4.922L98.831,36.434c-0.133-0.575-0.55-0.7-0.876-0.703c-0.005,0-0.009,0-0.012,0
		c-0.325,0-0.734,0.121-0.878,0.685L78.76,108.84c-0.828,2.824-3.273,4.658-6.112,4.664
		C72.643,113.504,72.638,113.504,72.632,113.504z"/>
</g>
<g id="Layer_1">
</g>
</svg>
